<svg xmlns="http://www.w3.org/2000/svg"  viewBox="0 0 50 50" width="100px" height="100px"><path d="M 11 4 C 7.1456661 4 4 7.1456661 4 11 L 4 39 C 4 42.854334 7.1456661 46 11 46 L 39 46 C 42.854334 46 46 42.854334 46 39 L 46 11 C 46 7.1456661 42.854334 4 39 4 L 11 4 z M 11 6 L 39 6 C 41.773666 6 44 8.2263339 44 11 L 44 39 C 44 41.773666 41.773666 44 39 44 L 11 44 C 8.2263339 44 6 41.773666 6 39 L 6 11 C 6 8.2263339 8.2263339 6 11 6 z M 25 11 C 17.27961 11 11 17.27961 11 25 C 11 32.72039 17.27961 39 25 39 C 27.259255 39 29.350715 38.380435 31.238281 37.427734 L 32.226562 38.632812 A 1.0001 1.0001 0 0 0 33 39 L 39 39 A 1.0001 1.0001 0 0 0 39.773438 37.367188 L 36.275391 33.09375 C 37.926891 30.796009 39 28.041703 39 25 C 39 17.27961 32.72039 11 25 11 z M 25 13 C 31.63961 13 37 18.36039 37 25 C 37 27.878071 35.988699 30.507747 34.302734 32.576172 A 1.0001 1.0001 0 0 0 34.304688 33.839844 L 36.890625 37 L 33.474609 37 L 32.318359 35.585938 A 1.0001 1.0001 0 0 0 31.039062 35.357422 C 29.259843 36.397766 27.206218 37 25 37 C 18.36039 37 13 31.63961 13 25 C 13 18.36039 18.36039 13 25 13 z M 25 16 C 20.041484 16 16 20.041484 16 25 C 16 29.958516 20.041484 34 25 34 C 26.332649 34 27.596518 33.701779 28.730469 33.183594 A 1.0001 1.0001 0 0 0 29.089844 31.640625 L 26.109375 28 L 29.525391 28 L 31.025391 29.833984 A 1.0001 1.0001 0 0 0 32.650391 29.726562 C 33.498636 28.355457 34 26.733958 34 25 C 34 20.041484 29.958516 16 25 16 z M 25 18 C 28.877484 18 32 21.122516 32 25 C 32 25.822706 31.817072 26.589075 31.554688 27.320312 L 30.773438 26.367188 A 1.0001 1.0001 0 0 0 30 26 L 24 26 A 1.0001 1.0001 0 0 0 23.226562 27.632812 L 26.525391 31.666016 C 26.017565 31.785447 25.544879 32 25 32 C 21.122516 32 18 28.877484 18 25 C 18 21.122516 21.122516 18 25 18 z"/></svg>